{"title":"The Usual Suspects 1995.1080p.BluRay.x264-LTT","uid":5510960,"size":6239456040,"categoryP":"video","categoryS":"hd___movies","magnet":"?xt=urn:btih:8a0fd2b2a043045cb222ac99b420e584e61d5194&amp;dn=The+Usual+Suspects+1995.1080p.BluRay.x264-LTT&amp;tr=udp%3A%2F%2Ftracker.openbittorrent.com%3A80&amp;tr=udp%3A%2F%2Fopen.demonii.com%3A1337&amp;tr=udp%3A%2F%2Ftracker.coppersurfer.tk%3A6969&amp;tr=udp%3A%2F%2Fexodus.desync.com%3A6969","seeders":2,"leechers":0,"uploader":"Ltt_01","files":2,"time":1272050476,"description":"The Usual Suspects 1995.1080p.BluRay.mkv\n****************************************\n\nTiTLE......  The Usual Suspects\nYEAR.......  1995\nGENRE......  Crime | Mystery | Thriller\niMDB RATE..  User Rating: 8.7/10 (253,856 votes)\niMDB URL... &lt;a href=&quot; http://www.imdb.com/title/tt0114814/&quot; rel=&quot;nofollow&quot; target=&quot;_NEW&quot;&gt; http://www.imdb.com/title/tt0114814/&lt;/a&gt;\nAwards 1996: Won 2 Oscars. Another 22 wins &amp; 7 nominations\n**********************************************************\n\nVideo\n*****\nDuration                         : 1h 46mn\nBit rate                         : 6 332 Kbps\nWidth                            : 1 920 pixels\nHeight                           : 816 pixels\nDisplay aspect ratio             : 2.35:1\nFrame rate                       : 23.976 fps\nStream size                      : 4.57 GiB (79%)\n\nAudio\n*****\nFormat                           : DTS\nCodec ID                         : A_DTS\nBit rate                         : 1 510 Kbps\nChannel(s)                       : 6 channels\nChannel positions                : Front: L C R, Surround: L R, LFE\nSampling rate                    : 48.0 KHz\nStream size                      : 1.12 GiB (19%)\nLanguage                         : English\n\nSubtitles: English, French, Portuguese, Swedish \n***********************************************\n","torrent":{"xt":"urn:btih:8a0fd2b2a043045cb222ac99b420e584e61d5194","amp;dn":"The+Usual+Suspects+1995.1080p.BluRay.x264-LTT","amp;tr":["udp%3A%2F%2Ftracker.openbittorrent.com%3A80","udp%3A%2F%2Fopen.demonii.com%3A1337","udp%3A%2F%2Ftracker.coppersurfer.tk%3A6969","udp%3A%2F%2Fexodus.desync.com%3A6969"],"infoHash":"8a0fd2b2a043045cb222ac99b420e584e61d5194","infoHashBuffer":{"type":"Buffer","data":[138,15,210,178,160,67,4,92,178,34,172,153,180,32,229,132,230,29,81,148]},"announce":[],"urlList":[]}}